#N canvas 228 228 1920 956 12;
#X obj 304 167 adc~;
#X obj 399 518 dac~;
#X obj 401 190 osc~ 100;
#X obj 555 169 osc~ 400;
#X obj 436 3 vsl 19 162 0 127 0 0 empty empty empty 0 -9 0 12 #fcfcfc #000000 #000000 0 1;
#X connect 0 0 1 0;
#X connect 2 0 1 0;
#X connect 3 0 1 0;
#X connect 4 0 2 0;
